HIERARCHY
ROOT Pelvis
{
	OFFSET 0.000000 0.000000 0.000000
	CHANNELS 6 Xposition Yposition Zposition Xrotation Yrotation Zrotation
	JOINT LeftUpLeg_virtual
	{
		OFFSET 0.000000 0.000000 0.000000
		CHANNELS 3 Xrotation Yrotation Zrotation
		JOINT LeftUpLeg
		{
			OFFSET 18.735201 -5.666702 -4.541200
			CHANNELS 3 Xrotation Yrotation Zrotation
			JOINT LeftLeg
			{
				OFFSET -0.021200 -31.938179 0.493100
				CHANNELS 3 Xrotation Yrotation Zrotation
				JOINT LeftFoot
				{
					OFFSET 0.021200 -31.938179 -4.336299
					CHANNELS 3 Xrotation Yrotation Zrotation
					JOINT LeftToeBase
					{
						OFFSET 0.943001 -26.722000 15.023500
						CHANNELS 3 Xrotation Yrotation Zrotation
						End Site
						{
							OFFSET 0 0 0
						}
					}
				}
			}
		}
	}
	JOINT RightUpLeg_virtual
	{
		OFFSET 0.000000 0.000000 0.000000
		CHANNELS 3 Xrotation Yrotation Zrotation
		JOINT RightUpLeg
		{
			OFFSET -18.735201 -5.666702 -4.541200
			CHANNELS 3 Xrotation Yrotation Zrotation
			JOINT RightLeg
			{
				OFFSET 0.018946 -31.938133 0.493100
				CHANNELS 3 Xrotation Yrotation Zrotation
				JOINT RightFoot
				{
					OFFSET -0.018946 -31.938126 -4.336299
					CHANNELS 3 Xrotation Yrotation Zrotation
					JOINT RightToeBase
					{
						OFFSET -0.943001 -26.722004 15.023500
						CHANNELS 3 Xrotation Yrotation Zrotation
						End Site
						{
							OFFSET 0 0 0
						}
					}
				}
			}
		}
	}
	JOINT Hips_virtual
	{
		OFFSET 0.000000 0.000000 0.000000
		CHANNELS 3 Xrotation Yrotation Zrotation
		JOINT Hips
		{
			OFFSET -0.000000 -0.000000 -0.000000
			CHANNELS 3 Xrotation Yrotation Zrotation
			JOINT Spine
			{
				OFFSET 0.000000 10.199997 -0.299500
				CHANNELS 3 Xrotation Yrotation Zrotation
				JOINT Spine1
				{
					OFFSET 0.000000 11.900002 -1.516600
					CHANNELS 3 Xrotation Yrotation Zrotation
					JOINT Spine2
					{
						OFFSET 0.000000 13.600006 -2.842500
						CHANNELS 3 Xrotation Yrotation Zrotation
						JOINT Neck_virtual
						{
							OFFSET 0.000000 0.000000 0.000000
							CHANNELS 3 Xrotation Yrotation Zrotation
							JOINT Neck
							{
								OFFSET 0.000000 9.624100 -2.890100
								CHANNELS 3 Xrotation Yrotation Zrotation
								JOINT Head
								{
									OFFSET 0.000000 14.068802 -1.351900
									CHANNELS 3 Xrotation Yrotation Zrotation
									End Site
									{
										OFFSET 0 0 0
									}
								}
							}
						}
						JOINT LeftShoulder_virtual
						{
							OFFSET 0.000000 0.000000 0.000000
							CHANNELS 3 Xrotation Yrotation Zrotation
							JOINT LeftShoulder
							{
								OFFSET 15.263000 10.923401 -0.547700
								CHANNELS 3 Xrotation Yrotation Zrotation
								JOINT LeftArm
								{
									OFFSET 25.438599 -2.830597 -13.032500
									CHANNELS 3 Xrotation Yrotation Zrotation
									JOINT LeftForeArm
									{
										OFFSET 29.960503 0.000000 0.000000
										CHANNELS 3 Xrotation Yrotation Zrotation
										JOINT LeftHand
										{
											OFFSET 27.849251 0.000000 0.000000
											CHANNELS 3 Xrotation Yrotation Zrotation
											End Site
											{
												OFFSET 0 0 0
											}
										}
									}
								}
							}
						}
						JOINT RightShoulder_virtual
						{
							OFFSET 0.000000 0.000000 0.000000
							CHANNELS 3 Xrotation Yrotation Zrotation
							JOINT RightShoulder
							{
								OFFSET -15.263000 10.923401 -0.547700
								CHANNELS 3 Xrotation Yrotation Zrotation
								JOINT RightArm
								{
									OFFSET -25.438599 -2.830597 -13.032500
									CHANNELS 3 Xrotation Yrotation Zrotation
									JOINT RightForeArm
									{
										OFFSET -29.960503 0.000000 0.000000
										CHANNELS 3 Xrotation Yrotation Zrotation
										JOINT RightHand
										{
											OFFSET -27.849251 0.000000 0.000000
											CHANNELS 3 Xrotation Yrotation Zrotation
											End Site
											{
												OFFSET 0 0 0
											}
										}
									}
								}
							}
						}
					}
				}
			}
		}
	}
}
MOTION
Frames: 7
Frame Time: 0.03333333
-4.676667 74.220146 1.057730 0.000000 0.000000 0.000000 -9.685558 -75.598972 -6.541127 -42.366816 10.667701 56.972995 42.494182 -2.845021 -5.975803 4.807053 -2.448978 -25.289095 0.000000 0.000000 0.000000 -11.824957 -74.972917 -9.766053 -42.678919 8.903903 -31.045839 67.210810 13.099793 -6.453507 -22.785016 -4.447482 29.482119 0.000000 0.000000 0.000000 -9.468443 -75.028959 -6.554317 0.819929 0.315468 -1.524406 4.561511 -1.358785 -0.053053 4.089447 -0.704181 -1.599248 0.000000 0.000000 0.000000 5.402472 -0.528150 -2.167859 -0.220237 4.857429 1.311195 0.000000 0.000000 0.000000 3.577119 -0.356839 -2.335020 0.308820 -7.507696 -14.617515 -34.381355 -15.916105 -2.592538 -4.729726 -33.275459 -5.475596 0.000000 0.000000 0.000000 4.638896 -0.321110 -2.792461 1.834677 14.601635 7.405680 42.190492 59.449195 -19.767860 95.413720 88.770603 -101.030594 0.000000 0.000000 0.000000 
-4.889175 74.435356 0.905279 0.000000 0.000000 0.000000 -10.504018 -75.808966 -7.401286 -42.131837 11.397163 57.183577 43.782858 -2.571229 -5.923583 5.963322 -2.671860 -24.495565 0.000000 0.000000 0.000000 -11.776646 -75.251336 -9.600795 -42.517514 8.738861 -30.804761 66.793246 12.551173 -6.208373 -24.140672 -5.265351 28.657210 0.000000 0.000000 0.000000 -10.104373 -75.304427 -7.187035 0.663513 0.270455 -1.412404 4.369253 -1.294300 -0.238343 4.064918 -0.678274 -1.653105 0.000000 0.000000 0.000000 5.067162 -0.527324 -2.207898 -0.215940 4.803996 1.407814 0.000000 0.000000 0.000000 3.718595 -0.324937 -2.318360 0.629591 -7.592928 -15.284010 -34.726656 -14.902863 -4.793581 -3.848050 -31.135107 -4.962757 0.000000 0.000000 0.000000 4.742372 -0.347397 -2.929324 1.946957 14.471981 7.142742 42.507293 60.020629 -21.051627 110.723391 88.568648 -116.093764 0.000000 0.000000 0.000000 
-5.076976 74.825996 0.836788 0.000000 0.000000 0.000000 -12.754625 -76.231536 -9.595486 -41.165332 12.514822 56.958006 44.509126 -2.076270 -5.687916 7.488577 -2.697211 -23.674380 0.000000 0.000000 0.000000 -12.829166 -75.732550 -10.556203 -42.597629 8.132530 -30.824907 65.833830 11.942332 -5.487737 -23.558784 -5.438154 28.525100 0.000000 0.000000 0.000000 -11.419240 -75.499928 -8.448815 0.416450 0.179715 -1.339130 3.997352 -0.952171 -0.399137 4.086648 -0.585937 -1.617388 0.000000 0.000000 0.000000 4.616334 -0.472314 -2.164481 -0.319926 4.789764 1.449363 0.000000 0.000000 0.000000 4.002782 -0.243405 -2.183921 0.651836 -7.710381 -16.113823 -34.247193 -13.853066 -8.558551 -2.793940 -30.027137 -4.074798 0.000000 0.000000 0.000000 4.859390 -0.293144 -2.935990 1.982302 13.959711 7.179389 41.753339 60.138784 -20.582463 67.943259 88.337521 -72.813102 0.000000 0.000000 0.000000 
-5.098051 75.444130 0.838303 0.000000 0.000000 0.000000 -15.643032 -76.559358 -12.342959 -39.836634 13.646158 56.400943 44.395468 -1.383325 -5.440918 8.926620 -2.563035 -23.169238 0.000000 0.000000 0.000000 -15.006895 -76.111079 -12.632990 -42.783765 7.406970 -31.005152 64.442609 11.346667 -4.725724 -20.224110 -4.607099 29.164631 0.000000 0.000000 0.000000 -12.935688 -75.456419 -9.848877 0.148659 -0.140971 -1.307908 3.647454 -0.402035 -0.546597 4.211913 -0.454322 -1.500859 0.000000 0.000000 0.000000 4.214617 -0.365691 -2.056092 -0.499027 4.798046 1.433051 0.000000 0.000000 0.000000 4.444236 -0.117884 -1.943292 0.407000 -8.058734 -17.045697 -32.140848 -13.573902 -13.072106 -1.649792 -31.537408 -3.165341 0.000000 0.000000 0.000000 5.009946 -0.158537 -2.808736 1.828689 13.093117 7.528445 39.331125 59.773963 -17.501878 25.337919 85.760948 -29.569446 0.000000 0.000000 0.000000 
-4.977350 76.307274 0.776136 0.000000 0.000000 0.000000 -17.919298 -76.512831 -14.509202 -38.018721 14.316498 55.291372 43.437797 -0.576793 -5.111711 9.698980 -2.402501 -23.297406 0.000000 0.000000 0.000000 -17.304301 -76.030374 -14.821751 -42.294929 6.850048 -30.925334 62.260794 10.687797 -4.413359 -16.128807 -3.420668 29.821477 0.000000 0.000000 0.000000 -14.254847 -75.084789 -10.981649 0.005516 -0.607693 -1.456588 3.382395 0.197704 -0.680588 4.486195 -0.331643 -1.305646 0.000000 0.000000 0.000000 4.015409 -0.254680 -1.888478 -0.714434 4.823453 1.372132 0.000000 0.000000 0.000000 4.957288 0.008645 -1.629195 0.010591 -8.678662 -18.034836 -27.712198 -14.946291 -17.471276 -0.422745 -36.287511 -2.307942 0.000000 0.000000 0.000000 5.171260 -0.004425 -2.544016 1.439178 11.867135 8.196046 34.857215 58.928400 -11.304165 13.280925 80.539303 -16.789804 0.000000 0.000000 0.000000 
-4.771323 77.361275 0.826899 0.000000 0.000000 0.000000 -18.588910 -75.908564 -15.120232 -35.769093 14.309841 53.701102 41.415511 0.243069 -4.624423 10.269027 -2.592698 -24.419231 0.000000 0.000000 0.000000 -18.814506 -75.379798 -16.161102 -40.280146 6.540233 -30.408894 59.197653 9.871660 -4.581006 -13.464860 -2.671798 30.162812 0.000000 0.000000 0.000000 -15.408799 -74.232777 -11.873336 -0.069922 -1.023766 -1.566312 3.313224 0.659758 -0.751914 4.937170 -0.298764 -1.025732 0.000000 0.000000 0.000000 4.120659 -0.215364 -1.672072 -0.923478 4.857649 1.306247 0.000000 0.000000 0.000000 5.461642 0.053957 -1.289845 -0.446252 -9.569267 -18.887888 -21.833019 -18.799044 -20.558883 0.941146 -44.049126 -1.471476 0.000000 0.000000 0.000000 5.326573 0.080767 -2.157568 0.843427 10.513917 9.172028 28.840050 57.606594 -2.752874 8.980021 73.656992 -11.774843 0.000000 0.000000 0.000000 
-4.478426 78.465675 0.900352 0.000000 0.000000 0.000000 -18.254598 -74.714005 -14.725968 -33.752107 13.946213 52.169757 38.242352 1.198937 -4.182130 11.682092 -3.334705 -26.667541 0.000000 0.000000 0.000000 -19.114704 -74.067500 -16.239304 -37.105617 6.172013 -29.717501 55.871900 8.668552 -4.927587 -12.669787 -2.927118 30.131912 0.000000 0.000000 0.000000 -16.199206 -72.981794 -12.413027 -0.148620 -1.337063 -1.667386 3.461037 0.839214 -0.729107 5.403498 -0.461078 -0.673794 0.000000 0.000000 0.000000 4.426713 -0.369925 -1.404246 -1.109217 4.914273 1.256204 0.000000 0.000000 0.000000 5.837183 -0.101586 -0.951071 -0.967185 -10.632933 -19.216264 -15.779899 -25.344464 -21.467515 2.481803 -53.738767 -0.653608 0.000000 0.000000 0.000000 5.479035 -0.031542 -1.670475 0.095957 9.388734 10.414631 22.574598 55.640917 6.635329 7.110231 66.380279 -9.196875 0.000000 0.000000 0.000000 
